<svg width="112" height="103" viewBox="0 0 112 103" fill="none" xmlns="http://www.w3.org/2000/svg">
<path d="M92.2423 3.65895C82.4844 -3.11896 64.3622 -1.23726 57 15.7367C52.9683 25.0271 52.8603 40.1778 35.5358 44.8522C40.327 44.7938 66.5038 47.6277 75.765 32.4358C82.2215 21.8892 76.4077 4.38933 92.2423 3.65895Z" fill="url(#paint0_radial_291_526)"/>
<path d="M19 19.9025C34.7177 -2.59316 67.8523 -5.83396 76.5 14.2368C84.6802 33.1974 67.2926 49.2637 35.5358 44.8522C49.0623 44.151 62.8227 37.3439 58.382 24.1679C54.5548 12.8324 37.7561 9.32661 19 19.9025Z" fill="#496BEA"/>
<path opacity="0.9" d="M9.5 65.4399C9.61458 65.1795 9.80729 64.9608 10.0781 64.7837C10.3594 64.5962 10.6458 64.5024 10.9375 64.5024C11.2188 64.5024 11.5 64.5962 11.7812 64.7837C12.0729 64.9608 12.2708 65.1795 12.375 65.4399L20.9688 85.3774C21.0625 85.5858 21.1094 85.7993 21.1094 86.0181C21.1094 86.4451 20.9531 86.8149 20.6406 87.1274C20.3385 87.4295 19.974 87.5806 19.5469 87.5806C19.2552 87.5806 18.9688 87.4868 18.6875 87.2993C18.4062 87.1118 18.2083 86.8879 18.0938 86.6274L15.4219 80.4243L6.51562 80.2993L3.78125 86.6431C3.67708 86.9035 3.48438 87.1274 3.20312 87.3149C2.92188 87.5129 2.63542 87.6118 2.34375 87.6118C1.91667 87.6118 1.54688 87.4608 1.23438 87.1587C0.932292 86.8462 0.78125 86.4764 0.78125 86.0493C0.78125 85.8306 0.828125 85.617 0.921875 85.4087L9.5 65.4399ZM10.9375 70.0181L7.85938 77.1899L14.0625 77.2681L10.9375 70.0181ZM40.0156 78.8618C40.0156 80.0389 39.7969 81.1847 39.3594 82.2993C38.9323 83.4139 38.2865 84.3983 37.4219 85.2524C36.6615 85.992 35.7865 86.5649 34.7969 86.9712C33.8073 87.3774 32.7812 87.5806 31.7188 87.5806C30.6354 87.5806 29.6719 87.3514 28.8281 86.8931C27.9948 86.4347 27.2396 85.8149 26.5625 85.0337V91.6118C26.5625 92.0389 26.4062 92.4035 26.0938 92.7056C25.7917 93.0181 25.4271 93.1743 25 93.1743C24.5729 93.1743 24.2031 93.0181 23.8906 92.7056C23.5885 92.4035 23.4375 92.0389 23.4375 91.6118V71.6587C23.4375 71.2316 23.5885 70.867 23.8906 70.5649C24.2031 70.2524 24.5729 70.0962 25 70.0962C25.4271 70.0962 25.7448 70.2524 25.9531 70.5649C26.1719 70.867 26.3125 71.2316 26.375 71.6587L26.5625 72.9243C27.1562 72.0701 27.9375 71.3983 28.9062 70.9087C29.8854 70.4191 30.8594 70.1743 31.8281 70.1743C33.0052 70.1743 34.0885 70.4087 35.0781 70.8774C36.0781 71.3462 36.9479 71.9868 37.6875 72.7993C38.4271 73.6014 39 74.5233 39.4062 75.5649C39.8125 76.6066 40.0156 77.7056 40.0156 78.8618ZM31.8594 73.2993C31.1823 73.2993 30.5104 73.4504 29.8438 73.7524C29.1771 74.0441 28.6094 74.4504 28.1406 74.9712C27.6719 75.4816 27.3073 76.091 27.0469 76.7993C26.7969 77.4972 26.6719 78.2108 26.6719 78.9399C26.6719 79.9399 26.8906 80.8618 27.3281 81.7056C27.7656 82.5493 28.3698 83.2264 29.1406 83.7368C29.9115 84.2472 30.7917 84.5024 31.7812 84.5024C32.7708 84.5024 33.651 84.2368 34.4219 83.7056C35.1927 83.1639 35.7969 82.466 36.2344 81.6118C36.6823 80.7472 36.9062 79.8306 36.9062 78.8618C36.9062 77.8826 36.6875 76.9712 36.25 76.1274C35.8125 75.2837 35.2135 74.6014 34.4531 74.0806C33.6927 73.5597 32.8281 73.2993 31.8594 73.2993ZM58.9531 78.8618C58.9531 80.0389 58.7344 81.1847 58.2969 82.2993C57.8698 83.4139 57.224 84.3983 56.3594 85.2524C55.599 85.992 54.724 86.5649 53.7344 86.9712C52.7448 87.3774 51.7188 87.5806 50.6562 87.5806C49.5729 87.5806 48.6094 87.3514 47.7656 86.8931C46.9323 86.4347 46.1771 85.8149 45.5 85.0337V91.6118C45.5 92.0389 45.3438 92.4035 45.0312 92.7056C44.7292 93.0181 44.3646 93.1743 43.9375 93.1743C43.5104 93.1743 43.1406 93.0181 42.8281 92.7056C42.526 92.4035 42.375 92.0389 42.375 91.6118V71.6587C42.375 71.2316 42.526 70.867 42.8281 70.5649C43.1406 70.2524 43.5104 70.0962 43.9375 70.0962C44.3646 70.0962 44.6823 70.2524 44.8906 70.5649C45.1094 70.867 45.25 71.2316 45.3125 71.6587L45.5 72.9243C46.0938 72.0701 46.875 71.3983 47.8438 70.9087C48.8229 70.4191 49.7969 70.1743 50.7656 70.1743C51.9427 70.1743 53.026 70.4087 54.0156 70.8774C55.0156 71.3462 55.8854 71.9868 56.625 72.7993C57.3646 73.6014 57.9375 74.5233 58.3438 75.5649C58.75 76.6066 58.9531 77.7056 58.9531 78.8618ZM50.7969 73.2993C50.1198 73.2993 49.4479 73.4504 48.7812 73.7524C48.1146 74.0441 47.5469 74.4504 47.0781 74.9712C46.6094 75.4816 46.2448 76.091 45.9844 76.7993C45.7344 77.4972 45.6094 78.2108 45.6094 78.9399C45.6094 79.9399 45.8281 80.8618 46.2656 81.7056C46.7031 82.5493 47.3073 83.2264 48.0781 83.7368C48.849 84.2472 49.7292 84.5024 50.7188 84.5024C51.7083 84.5024 52.5885 84.2368 53.3594 83.7056C54.1302 83.1639 54.7344 82.466 55.1719 81.6118C55.6198 80.7472 55.8438 79.8306 55.8438 78.8618C55.8438 77.8826 55.625 76.9712 55.1875 76.1274C54.75 75.2837 54.151 74.6014 53.3906 74.0806C52.6302 73.5597 51.7656 73.2993 50.7969 73.2993ZM71.6719 72.0962C71.6719 72.9295 71.2708 73.3931 70.4688 73.4868C70.1771 73.5181 69.8073 73.4243 69.3594 73.2056C68.9115 72.9764 68.4583 72.8618 68 72.8618C67.0938 72.8618 66.375 73.0962 65.8438 73.5649C65.3125 74.0233 64.9323 74.6431 64.7031 75.4243C64.474 76.2056 64.3594 77.0806 64.3594 78.0493V86.1118C64.3594 86.5701 64.2188 86.9347 63.9375 87.2056C63.6667 87.4764 63.2865 87.6118 62.7969 87.6118C62.3177 87.6118 61.9375 87.4764 61.6562 87.2056C61.375 86.9347 61.2344 86.5649 61.2344 86.0962V71.7056C61.2344 71.2368 61.349 70.8514 61.5781 70.5493C61.8177 70.2472 62.1406 70.0962 62.5469 70.0962C62.7865 70.0962 63.0625 70.2004 63.375 70.4087C63.6979 70.6066 63.9219 70.9504 64.0469 71.4399L64.2031 72.5649C64.3385 72.2733 64.599 71.9347 64.9844 71.5493C65.3698 71.1639 65.8281 70.8306 66.3594 70.5493C66.8906 70.2576 67.4427 70.1118 68.0156 70.1118C69.0781 70.1118 69.9531 70.2368 70.6406 70.4868C71.3281 70.7264 71.6719 71.2629 71.6719 72.0962ZM75.2344 68.5181C74.7552 68.5181 74.3646 68.3722 74.0625 68.0806C73.7604 67.7785 73.6042 67.4087 73.5938 66.9712L73.5625 65.7837C73.5625 65.3879 73.7396 65.0701 74.0938 64.8306C74.4479 64.5806 74.7865 64.4556 75.1094 64.4556C75.5469 64.4556 75.9115 64.6066 76.2031 64.9087C76.5052 65.2108 76.6615 65.5754 76.6719 66.0024L76.6875 66.9399C76.6875 67.3462 76.5521 67.7108 76.2812 68.0337C76.0104 68.3566 75.6615 68.5181 75.2344 68.5181ZM73.5469 71.4712C73.5469 71.0754 73.7135 70.7524 74.0469 70.5024C74.3802 70.2524 74.7031 70.1274 75.0156 70.1274C75.474 70.1274 75.8646 70.2629 76.1875 70.5337C76.5104 70.8045 76.6719 71.1639 76.6719 71.6118V71.6274L76.7031 86.0962C76.7031 86.5129 76.5469 86.867 76.2344 87.1587C75.9323 87.4504 75.5677 87.5962 75.1406 87.5962C74.7031 87.5962 74.3333 87.4504 74.0312 87.1587C73.7292 86.8566 73.5781 86.4972 73.5781 86.0806L73.5469 71.4712ZM91.4844 70.4399C91.8177 70.4712 92.1302 70.6274 92.4219 70.9087C92.7135 71.1899 92.8594 71.5233 92.8594 71.9087C92.8594 72.3462 92.724 72.716 92.4531 73.0181L83.7344 84.1587H91.625C92.0104 84.1587 92.3281 84.3358 92.5781 84.6899C92.8385 85.0441 92.9688 85.3879 92.9688 85.7212C92.9688 86.0545 92.8385 86.3983 92.5781 86.7524C92.3281 87.1066 92.0104 87.2837 91.625 87.2837H80.25C79.8333 87.2837 79.4688 87.1379 79.1562 86.8462C78.8438 86.5441 78.6875 86.1795 78.6875 85.7524C78.6875 85.3358 78.8229 84.9764 79.0938 84.6743L87.7969 73.5806L80.1719 73.6587H79.9062C79.5625 73.6587 79.2552 73.4972 78.9844 73.1743C78.7135 72.841 78.5781 72.5233 78.5781 72.2212C78.5781 71.8254 78.7083 71.4451 78.9688 71.0806C79.2396 70.716 79.6302 70.5337 80.1406 70.5337L91.2812 70.4399H91.4844ZM102.469 70.1743C103.854 70.1743 105.125 70.5181 106.281 71.2056C107.438 71.8931 108.365 72.8201 109.062 73.9868C109.771 75.1431 110.125 76.4295 110.125 77.8462C110.125 78.1379 110.109 78.4347 110.078 78.7368C110.036 79.1222 109.859 79.4504 109.547 79.7212C109.245 79.9816 108.901 80.1118 108.516 80.1118L97.5938 80.1274C97.7708 80.8774 98.1042 81.5806 98.5938 82.2368C99.0833 82.8931 99.6771 83.4243 100.375 83.8306C101.083 84.2368 101.854 84.4399 102.688 84.4399C103.583 84.4399 104.385 84.2212 105.094 83.7837C105.802 83.3462 106.354 82.841 106.75 82.2681C106.875 82.0701 107.062 81.9035 107.312 81.7681C107.573 81.6326 107.818 81.5649 108.047 81.5649C108.474 81.5649 108.839 81.7212 109.141 82.0337C109.453 82.3462 109.609 82.716 109.609 83.1431C109.609 83.4764 109.516 83.7733 109.328 84.0337C108.682 84.9816 107.792 85.8045 106.656 86.5024C105.531 87.1899 104.224 87.5337 102.734 87.5337C101.536 87.5337 100.422 87.2993 99.3906 86.8306C98.3698 86.3618 97.4792 85.7212 96.7188 84.9087C95.9583 84.0962 95.3646 83.1639 94.9375 82.1118C94.5208 81.0493 94.3125 79.9295 94.3125 78.7524C94.3125 77.617 94.5208 76.5389 94.9375 75.5181C95.3542 74.4868 95.9323 73.5701 96.6719 72.7681C97.4219 71.966 98.2917 71.3358 99.2812 70.8774C100.271 70.4087 101.333 70.1743 102.469 70.1743ZM106.906 76.9868C106.708 75.966 106.198 75.0962 105.375 74.3774C104.552 73.6587 103.583 73.2993 102.469 73.2993C101.333 73.2993 100.328 73.6691 99.4531 74.4087C98.5885 75.1483 98.0052 76.0129 97.7031 77.0024L106.906 76.9868Z" fill="white"/>
<defs>
<radialGradient id="paint0_radial_291_526" cx="0" cy="0" r="1" gradientUnits="userSpaceOnUse" gradientTransform="translate(68.6365 21.9477) scale(37.8043)">
<stop stop-color="white"/>
<stop offset="1" stop-color="#F2F2F2"/>
</radialGradient>
</defs>
</svg>
